HIERARCHY
ROOT pelvis
{
	OFFSET 0.000000 0.000000 0.000000
	CHANNELS 6 Xposition Yposition Zposition Zrotation Xrotation Yrotation
	JOINT lfemur
	{
		OFFSET 11.446000 0.000000 0.000000
		CHANNELS 3 Zrotation Xrotation Yrotation
		JOINT ltibia
		{
			OFFSET 0.000000 -42.030400 0.000000
			CHANNELS 3 Zrotation Xrotation Yrotation
			JOINT lfoot
			{
				OFFSET 0.000000 -39.930200 0.000000
				CHANNELS 3 Zrotation Xrotation Yrotation
				JOINT ltoes
				{
					OFFSET 0.000000 0.000000 11.775800
					CHANNELS 3 Zrotation Xrotation Yrotation
					End Site
					{
					    OFFSET 0.000000 0.000000 5.000000
					}
				}
			}
		}
	}
	JOINT rfemur
	{
		OFFSET -11.446000 0.000000 0.000000
		CHANNELS 3 Zrotation Xrotation Yrotation
		JOINT rtibia
		{
			OFFSET 0.000000 -42.030400 0.000000
			CHANNELS 3 Zrotation Xrotation Yrotation
			JOINT rfoot
			{
				OFFSET 0.000000 -39.930200 0.000000
				CHANNELS 3 Zrotation Xrotation Yrotation
				JOINT rtoes
				{
					OFFSET 0.000000 0.000000 11.775800
					CHANNELS 3 Zrotation Xrotation Yrotation
					End Site
					{
					    OFFSET 0.000000 0.000000 5.000000
					}
				}
			}
		}
	}
	JOINT thorax
	{
		OFFSET 0.000000 11.255600 -5.000000
		CHANNELS 3 Zrotation Xrotation Yrotation
		JOINT head
		{
			OFFSET 0.000000 43.799300 0.000000
			CHANNELS 3 Zrotation Xrotation Yrotation
			End Site
			{
			    OFFSET 0.000000 5.000000 0.000000
			}
		}
		JOINT lclavicle
		{
			OFFSET 0.000000 39.863000 0.000000
			CHANNELS 3 Zrotation Xrotation Yrotation
			JOINT lhumerus
			{
				OFFSET 17.380600 4.958300 0.000000
				CHANNELS 3 Zrotation Xrotation Yrotation
				JOINT lradius
				{
					OFFSET 0.000000 -27.561300 0.000000
					CHANNELS 3 Zrotation Xrotation Yrotation
					JOINT lhand
					{
						OFFSET 0.000000 -26.933000 0.000000
						CHANNELS 3 Zrotation Xrotation Yrotation
						End Site
						{
						    OFFSET 0.000000 -5.000000 0.000000
						}
					}
				}
			}
		}
		JOINT rclavicle
		{
			OFFSET 0.000000 39.863000 0.000000
			CHANNELS 3 Zrotation Xrotation Yrotation
			JOINT rhumerus
			{
				OFFSET -17.380600 4.958300 0.000000
				CHANNELS 3 Zrotation Xrotation Yrotation
				JOINT rradius
				{
					OFFSET 0.000000 -27.561300 0.000000
					CHANNELS 3 Zrotation Xrotation Yrotation
					JOINT rhand
					{
						OFFSET 0.000000 -26.933000 0.000000
						CHANNELS 3 Zrotation Xrotation Yrotation
						End Site
						{
						    OFFSET 0.000000 -5.000000 0.000000
						}
					}
				}
			}
		}
	}
}
MOTION
Frames: 8
Frame Time: 0.008342
49.398900 87.310300 4.799400 -1.269695 -3.672369 -88.055815 -9.519979 2.586593 -6.540057 -0.000000 10.211575 -0.000000 -0.000000 3.396480 7.022881 0.000000 -1.334601 -0.000000 -3.864178 -0.800641 -7.677092 -0.000000 18.668859 -0.000000 -0.000000 -2.000553 -0.939241 -0.000000 -29.537613 0.000000 -5.478475 1.077774 -0.189402 16.981370 23.642733 2.468931 5.230726 0.000000 1.661769 84.627475 -0.131266 60.630798 0.000000 -13.741872 -57.724809 5.877343 -1.173495 -0.000000 -4.324679 0.000000 -1.189644 -76.691973 6.946390 -63.986518 0.000000 -21.278397 41.463606 -3.666881 -2.150356 0.000000 
49.389400 87.309400 4.780400 -1.298200 -3.682370 -88.043538 -9.520742 2.641681 -6.609868 0.000000 10.166650 -0.000000 -0.000000 3.421004 7.091028 -0.000000 -1.336391 -0.000000 -3.875350 -0.755708 -7.754729 0.000000 18.677793 0.000000 0.000000 -2.023309 -0.870419 -0.000000 -29.537251 -0.000000 -5.471872 1.130046 -0.149927 16.989467 23.625897 2.404205 5.172125 -0.000000 1.706482 84.718590 -0.211148 60.465808 -0.000001 -13.769365 -57.453146 5.905680 -1.078166 0.000000 -4.387440 -0.000000 -1.196009 -76.654762 6.966853 -64.020025 -0.000003 -21.305690 41.349510 -3.572950 -2.182478 -0.000000 
49.390300 87.307100 4.764000 -1.277178 -3.694192 -88.065796 -9.517004 2.643388 -6.560950 -0.000000 10.125279 -0.000000 -0.000000 3.402506 7.056066 -0.000000 -1.337112 -0.000000 -3.873942 -0.781266 -7.720803 0.000000 18.666020 -0.000000 0.000000 -2.021978 -0.878450 -0.000000 -29.537726 -0.000000 -5.463370 1.143904 -0.135364 16.960426 23.592391 2.331316 5.100004 -0.000000 1.824554 84.877123 -0.389953 60.681062 0.000000 -13.635171 -57.580856 5.906712 -1.206231 -0.000000 -4.483122 -0.000000 -1.126689 -76.576477 6.999223 -64.253862 0.000000 -21.324418 41.711680 -3.457645 -2.221890 0.000000 
49.384800 87.305900 4.750300 -1.265859 -3.723919 -88.075806 -9.531241 2.661963 -6.540113 -0.000000 10.058305 0.000000 -0.000000 3.428145 7.051397 -0.000000 -1.336979 0.000000 -3.899436 -0.827060 -7.735798 -0.000000 18.738626 0.000000 0.000000 -2.079849 -0.875867 -0.000000 -29.537900 -0.000000 -5.479076 1.143512 -0.116369 16.916386 23.588905 2.345934 5.006432 -0.000000 1.920178 85.004098 -0.533826 60.723280 -0.000000 -13.566316 -57.703564 6.057964 -1.044339 -0.000000 -4.530083 -0.000000 -1.086191 -76.505304 7.095249 -64.061939 0.000001 -21.462370 41.661314 -3.586285 -2.178266 -0.000000 
49.380200 87.311000 4.734800 -1.280630 -3.732275 -88.094301 -9.522160 2.686819 -6.493273 -0.000000 10.054514 0.000000 0.000000 3.437036 6.996881 -0.000000 -1.336513 -0.000000 -3.881094 -0.783888 -7.662929 -0.000000 18.667468 -0.000000 -0.000000 -2.070669 -0.957486 0.000000 -29.537777 0.000000 -5.482579 1.141705 -0.106626 16.887260 23.606008 2.289247 4.992578 0.000000 1.938452 85.038976 -0.551052 60.798601 0.000000 -13.537248 -57.721029 6.134153 -1.092762 -0.000000 -4.605417 0.000000 -1.044207 -76.443833 7.104715 -64.013208 -0.000000 -21.484597 41.714497 -3.738608 -2.125975 0.000000 
49.373400 87.316200 4.724200 -1.278390 -3.749808 -88.114464 -9.527317 2.757092 -6.510105 -0.000000 9.918946 -0.000000 0.000000 3.510343 7.032453 0.000000 -1.337620 0.000000 -3.895779 -0.774637 -7.690167 0.000000 18.643972 -0.000000 -0.000000 -2.060658 -0.883084 -0.000000 -29.537726 -0.000000 -5.496685 1.107596 -0.056157 16.902100 23.628275 2.183611 4.990460 -0.000000 1.916078 84.993311 -0.546481 60.763031 -0.000000 -13.638994 -57.617735 6.112037 -1.028413 0.000000 -4.647413 -0.000000 -1.017138 -76.443669 7.110298 -64.171619 -0.000001 -21.451697 41.737976 -3.814500 -2.100344 0.000000 
49.359300 87.320900 4.706200 -1.267421 -3.739285 -88.112205 -9.502827 2.802048 -6.526209 -0.000000 9.824651 0.000000 -0.000000 3.526993 7.066643 -0.000000 -1.337178 -0.000000 -3.869402 -0.741109 -7.691070 -0.000000 18.578952 -0.000000 -0.000000 -2.041043 -0.885554 -0.000000 -29.537214 -0.000000 -5.493819 1.068867 -0.039300 16.865866 23.743234 2.235911 5.013836 -0.000000 1.870627 84.902815 -0.403098 60.506799 0.000001 -13.815300 -57.474186 6.052109 -1.066519 -0.000000 -4.689382 -0.000000 -1.009415 -76.393472 7.123723 -64.179871 -0.000001 -21.554574 41.602150 -3.626722 -2.164190 0.000000 
49.351200 87.328900 4.688600 -1.272222 -3.718824 -88.078534 -9.461581 2.837237 -6.510951 0.000000 9.771851 -0.000000 0.000000 3.543895 7.022038 -0.000000 -1.338350 0.000000 -3.826735 -0.674417 -7.697897 -0.000000 18.475546 -0.000000 0.000000 -1.971787 -0.908214 -0.000000 -29.537204 -0.000000 -5.475524 1.042664 -0.015889 16.867254 23.779640 2.165570 5.080117 0.000000 1.951896 84.887797 -0.692596 60.983947 -0.000000 -13.585259 -57.785606 6.219111 -1.037642 0.000000 -4.783065 -0.000000 -1.065793 -76.294441 7.084331 -64.247631 -0.000000 -21.612684 41.712817 -3.600059 -2.173142 0.000000 
